# xmcd CD database file
#
# Track frame offsets:
#	150
#	13275
#	27552
#	42245
#	54855
#	67840
#	80298
#	95117
#	109428
#	136086
#	150401
#	165236
#	178942
#	192511
#	203439
#	216309
#	227543
#
# Disc length: 3223 seconds
#
# Revision: 0
# Processed by: cddbd v1.4PL0 Copyright (c) Steve Scherf et al.
# Submitted via: CDex 1.50beta10
#
DISCID=df0c9511
DTITLE=Count Basie - The Classic Years
DYEAR=1995
DGENRE=Jazz
TTITLE0=Jive at five
TTITLE1=Jumpin' at the woodside
TTITLE2=The Blues I like to hear
TTITLE3=Sing for your supper
TTITLE4=Pannassie Stomp
TTITLE5=Dark Rapture
TTITLE6=Oh Lady be goode
TTITLE7=Stop beatin' about the mulberry bush
TTITLE8=Cherokke
TTITLE9=Texas Shuffle
TTITLE10=Evils Blues
TTITLE11=London Bridge is falling down
TTITLE12=My heart belongs to daddy
TTITLE13=Moten Swing
TTITLE14=Shortly George
TTITLE15=Lousiana
TTITLE16=Thursday
EXTD=YEAR: 1995
EXTT0=
EXTT1=
EXTT2=
EXTT3=
EXTT4=
EXTT5=
EXTT6=
EXTT7=
EXTT8=
EXTT9=
EXTT10=
EXTT11=
EXTT12=
EXTT13=
EXTT14=
EXTT15=
EXTT16=
PLAYORDER=
